# generated by scripts/viewpointpack.pl -- do not edit
mtllib floor.mtl
usemtl m
v -0.5020 -0.5020 0.0000
v 0.5020 -0.5020 0.0000
v 0.5020 0.5020 0.0000
v -0.5020 0.5020 0.0000
v -0.5020 0.5020 -0.0400
v 0.5020 0.5020 -0.0400
v 0.5020 -0.5020 -0.0400
v -0.5020 -0.5020 -0.0400
v -0.5020 -0.5020 -0.0400
v 0.5020 -0.5020 -0.0400
v 0.5020 -0.5020 0.0000
v -0.5020 -0.5020 0.0000
v 0.5020 0.5020 -0.0400
v -0.5020 0.5020 -0.0400
v -0.5020 0.5020 0.0000
v 0.5020 0.5020 0.0000
v -0.5020 0.5020 -0.0400
v -0.5020 -0.5020 -0.0400
v -0.5020 -0.5020 0.0000
v -0.5020 0.5020 0.0000
v 0.5020 -0.5020 -0.0400
v 0.5020 0.5020 -0.0400
v 0.5020 0.5020 0.0000
v 0.5020 -0.5020 0.0000
vt 0.125 0.125
vt 0.875 0.125
vt 0.875 0.875
vt 0.125 0.875
vn 0 0 1
vn 0 0 -1
vn 0 0 -1
vn 0 0 1
vn 0 -1 0
vn 0 1 0
vn 0 1 0
vn 0 -1 0
vn -1 0 0
vn 1 0 0
vn 1 0 0
vn -1 0 0
f 1/1/1 2/2/1 3/3/1
f 1/1/1 3/3/1 4/4/1
f 3/3/2 2/2/2 1/1/2
f 4/4/2 3/3/2 1/1/2
f 5/1/3 6/2/3 7/3/3
f 5/1/3 7/3/3 8/4/3
f 7/3/4 6/2/4 5/1/4
f 8/4/4 7/3/4 5/1/4
f 9/1/5 10/2/5 11/3/5
f 9/1/5 11/3/5 12/4/5
f 11/3/6 10/2/6 9/1/6
f 12/4/6 11/3/6 9/1/6
f 13/1/7 14/2/7 15/3/7
f 13/1/7 15/3/7 16/4/7
f 15/3/8 14/2/8 13/1/8
f 16/4/8 15/3/8 13/1/8
f 17/1/9 18/2/9 19/3/9
f 17/1/9 19/3/9 20/4/9
f 19/3/10 18/2/10 17/1/10
f 20/4/10 19/3/10 17/1/10
f 21/1/11 22/2/11 23/3/11
f 21/1/11 23/3/11 24/4/11
f 23/3/12 22/2/12 21/1/12
f 24/4/12 23/3/12 21/1/12
