# generated by scripts/viewpointpack.pl -- do not edit
mtllib wall.mtl
usemtl m
v -0.5600 -0.5600 7.3500
v 0.5600 -0.5600 7.3500
v 0.5600 -0.4400 7.3500
v -0.5600 -0.4400 7.3500
v -0.5600 -0.4400 0.0000
v 0.5600 -0.4400 0.0000
v 0.5600 -0.5600 0.0000
v -0.5600 -0.5600 0.0000
v -0.5600 -0.5600 0.0000
v 0.5600 -0.5600 0.0000
v 0.5600 -0.5600 7.3500
v -0.5600 -0.5600 7.3500
v 0.5600 -0.4400 0.0000
v -0.5600 -0.4400 0.0000
v -0.5600 -0.4400 7.3500
v 0.5600 -0.4400 7.3500
v -0.5600 -0.4400 0.0000
v -0.5600 -0.5600 0.0000
v -0.5600 -0.5600 7.3500
v -0.5600 -0.4400 7.3500
v 0.5600 -0.5600 0.0000
v 0.5600 -0.4400 0.0000
v 0.5600 -0.4400 7.3500
v 0.5600 -0.5600 7.3500
v -0.5020 -0.5020 0.0120
v 0.5020 -0.5020 0.0120
v 0.5020 0.5020 0.0120
v -0.5020 0.5020 0.0120
v -0.5020 0.5020 0.0040
v 0.5020 0.5020 0.0040
v 0.5020 -0.5020 0.0040
v -0.5020 -0.5020 0.0040
v -0.5020 -0.5020 0.0040
v 0.5020 -0.5020 0.0040
v 0.5020 -0.5020 0.0120
v -0.5020 -0.5020 0.0120
v 0.5020 0.5020 0.0040
v -0.5020 0.5020 0.0040
v -0.5020 0.5020 0.0120
v 0.5020 0.5020 0.0120
v -0.5020 0.5020 0.0040
v -0.5020 -0.5020 0.0040
v -0.5020 -0.5020 0.0120
v -0.5020 0.5020 0.0120
v 0.5020 -0.5020 0.0040
v 0.5020 0.5020 0.0040
v 0.5020 0.5020 0.0120
v 0.5020 -0.5020 0.0120
vt 0.125 0.125
vt 0.875 0.125
vt 0.875 0.875
vt 0.125 0.875
vn 0 0 1
vn 0 0 -1
vn 0 0 -1
vn 0 0 1
vn 0 -1 0
vn 0 1 0
vn 0 1 0
vn 0 -1 0
vn -1 0 0
vn 1 0 0
vn 1 0 0
vn -1 0 0
vn 0 0 1
vn 0 0 -1
vn 0 0 -1
vn 0 0 1
vn 0 -1 0
vn 0 1 0
vn 0 1 0
vn 0 -1 0
vn -1 0 0
vn 1 0 0
vn 1 0 0
vn -1 0 0
f 1/1/1 2/2/1 3/3/1
f 1/1/1 3/3/1 4/4/1
f 3/3/2 2/2/2 1/1/2
f 4/4/2 3/3/2 1/1/2
f 5/1/3 6/2/3 7/3/3
f 5/1/3 7/3/3 8/4/3
f 7/3/4 6/2/4 5/1/4
f 8/4/4 7/3/4 5/1/4
f 9/1/5 10/2/5 11/3/5
f 9/1/5 11/3/5 12/4/5
f 11/3/6 10/2/6 9/1/6
f 12/4/6 11/3/6 9/1/6
f 13/1/7 14/2/7 15/3/7
f 13/1/7 15/3/7 16/4/7
f 15/3/8 14/2/8 13/1/8
f 16/4/8 15/3/8 13/1/8
f 17/1/9 18/2/9 19/3/9
f 17/1/9 19/3/9 20/4/9
f 19/3/10 18/2/10 17/1/10
f 20/4/10 19/3/10 17/1/10
f 21/1/11 22/2/11 23/3/11
f 21/1/11 23/3/11 24/4/11
f 23/3/12 22/2/12 21/1/12
f 24/4/12 23/3/12 21/1/12
f 25/1/13 26/2/13 27/3/13
f 25/1/13 27/3/13 28/4/13
f 27/3/14 26/2/14 25/1/14
f 28/4/14 27/3/14 25/1/14
f 29/1/15 30/2/15 31/3/15
f 29/1/15 31/3/15 32/4/15
f 31/3/16 30/2/16 29/1/16
f 32/4/16 31/3/16 29/1/16
f 33/1/17 34/2/17 35/3/17
f 33/1/17 35/3/17 36/4/17
f 35/3/18 34/2/18 33/1/18
f 36/4/18 35/3/18 33/1/18
f 37/1/19 38/2/19 39/3/19
f 37/1/19 39/3/19 40/4/19
f 39/3/20 38/2/20 37/1/20
f 40/4/20 39/3/20 37/1/20
f 41/1/21 42/2/21 43/3/21
f 41/1/21 43/3/21 44/4/21
f 43/3/22 42/2/22 41/1/22
f 44/4/22 43/3/22 41/1/22
f 45/1/23 46/2/23 47/3/23
f 45/1/23 47/3/23 48/4/23
f 47/3/24 46/2/24 45/1/24
f 48/4/24 47/3/24 45/1/24
